<?xml version="1.0" encoding="utf-8"?>
<!-- Generator: Adobe Illustrator 16.0.0, SVG Export Plug-In . SVG Version: 6.00 Build 0)  -->
<!DOCTYPE svg PUBLIC "-//W3C//DTD SVG 1.1//EN" "http://www.w3.org/Graphics/SVG/1.1/DTD/svg11.dtd">
<svg version="1.1" id="Capa_1" xmlns="http://www.w3.org/2000/svg" xmlns:xlink="http://www.w3.org/1999/xlink" x="0px" y="0px"
	 width="55px" height="70px" viewBox="0 0 55 83" enable-background="new 0 0 55 83" xml:space="preserve">
<path fill-rule="evenodd" clip-rule="evenodd" fill="#00fba2" d="M49.768,46.726c-0.215-1.398-0.353-2.809-0.74-4.18
	c-1.761-6.216-5.423-10.913-11.111-14.006c0.222-0.285,0.113-0.617,0.114-0.925c0.01-3.519-0.019-7.037,0.016-10.554
	c0.029-3.006,2.338-5.537,5.22-5.807c3.094-0.289,5.837,1.745,6.434,4.783c0.067,0.34,0.089,0.692,0.09,1.039
	c0.012,9.769,0.019,19.538,0.023,29.306C49.813,46.497,49.783,46.612,49.768,46.726z"/>
<path fill-rule="evenodd" clip-rule="evenodd" fill="#2B2F3A" d="M49.768,46.726c-0.139-1.176-0.059-2.364-0.351-3.534
	c-1.528-6.127-4.906-10.901-10.296-14.23c-0.379-0.234-0.762-0.398-1.205-0.421c-0.263-0.123-0.522-0.254-0.789-0.368
	c-6.922-2.94-13.52-2.735-19.648,2.027c-0.029,0.022-0.103-0.011-0.191-0.023c0-4.184,0.002-8.371-0.004-12.558
	c0-0.463,0.002-0.936-0.076-1.39c-0.552-3.146-3.231-5.235-6.362-4.984c-3,0.24-5.335,2.831-5.338,5.984
	c-0.011,10.97-0.006,21.941-0.002,32.911c0.001,1.4,0.144,2.788,0.437,4.16C9.404,70.508,27.415,76.322,39.38,68.002
	C46.69,62.916,50.164,55.701,49.768,46.726z M35.322,55.748c-2.345,3.352-5.66,4.744-9.632,4.094
	c-4.392-0.72-7.113-3.442-8.206-7.771c-0.188-0.743-0.194-1.497-0.194-2.251c-0.004-2.883-0.003-5.762-0.003-8.645
	c0-3.258,0.004-6.518-0.004-9.776c-0.001-0.407-0.02-0.709,0.553-0.741c6.041-0.336,11.423,1.191,15.744,5.62
	C38.78,41.606,39.508,49.769,35.322,55.748z"/>
</svg>
